<?xml version="1.0" standalone="no"?>
<!DOCTYPE svg PUBLIC "-//W3C//DTD SVG 20010904//EN"
 "http://www.w3.org/TR/2001/REC-SVG-20010904/DTD/svg10.dtd">
<svg version="1.0" xmlns="http://www.w3.org/2000/svg"
 width="304.000000pt" height="304.000000pt" viewBox="0 0 304.000000 304.000000"
 preserveAspectRatio="xMidYMid meet">
<metadata>
Created by potrace 1.11, written by Peter Selinger 2001-2013
</metadata>
<g transform="translate(0.000000,304.000000) scale(0.100000,-0.100000)"
fill="#000000" stroke="none">
<path d="M1035 2923 c0 -103 -2 -116 -18 -119 -9 -1 -15 2 -11 7 3 5 0 9 -5 9
-6 0 -11 -4 -11 -10 0 -5 -5 -10 -11 -10 -5 0 -8 4 -5 9 7 10 -13 9 -30 -2 -6
-3 -14 -3 -18 0 -10 11 -37 12 -30 2 3 -5 1 -9 -5 -9 -5 0 -12 4 -15 9 -14 21
-76 -4 -76 -31 0 -12 4 -17 13 -12 10 6 10 4 0 -7 -7 -7 -13 -28 -13 -47 0
-24 4 -31 13 -26 10 6 10 4 0 -7 -16 -16 -17 -63 -2 -54 6 4 5 -4 -3 -16 -7
-13 -14 -26 -15 -28 -1 -2 -50 -3 -108 -2 -95 2 -105 0 -106 -16 -1 -10 -1
-65 -1 -123 0 -58 -2 -99 -5 -92 -2 6 -9 12 -14 12 -6 0 -8 -4 -5 -9 3 -4 -26
-9 -65 -10 -55 -1 -69 1 -63 11 6 10 4 10 -9 0 -9 -8 -26 -13 -39 -12 -13 1
-27 2 -33 1 -6 -1 -10 -45 -10 -111 0 -92 -2 -110 -15 -110 -13 0 -13 -1 0
-10 12 -8 10 -10 -8 -10 -13 0 -21 4 -18 8 2 4 -6 8 -19 8 -13 0 -21 -4 -19
-8 6 -10 -20 -11 -30 -1 -3 4 -21 8 -38 9 -23 2 -28 0 -18 -6 12 -8 10 -10 -8
-10 -13 0 -21 4 -18 8 3 5 -1 9 -9 9 -8 0 -11 -5 -8 -10 4 -6 0 -8 -10 -4 -16
6 -17 -37 -17 -578 0 -456 3 -586 13 -592 18 -11 38 -13 31 -2 -3 5 2 9 11 9
9 0 14 -4 11 -8 -3 -5 1 -9 9 -9 8 0 12 4 9 9 -6 10 20 11 30 1 10 -11 37 -12
30 -2 -3 5 2 9 11 9 9 0 14 -4 11 -8 -2 -4 6 -8 19 -8 13 0 22 3 19 7 -2 4 4
7 14 6 17 -1 19 -11 20 -109 1 -82 -2 -107 -11 -102 -7 4 -4 -1 5 -11 15 -16
33 -19 135 -18 65 1 112 -1 106 -4 -7 -2 -13 -9 -13 -14 0 -6 4 -8 9 -5 4 3 8
-43 8 -102 -1 -87 2 -107 13 -108 8 -1 60 -2 116 -3 l101 -1 -3 -90 c-2 -67 0
-89 9 -84 8 5 8 3 0 -7 -16 -17 -17 -43 -1 -33 7 5 9 2 6 -8 -4 -10 1 -14 22
-14 16 0 27 3 24 8 -6 10 10 11 20 1 11 -11 67 -12 60 -2 -3 5 2 9 11 9 9 0
14 -4 11 -8 -2 -4 6 -8 19 -8 13 0 21 4 19 8 -3 4 0 8 5 8 6 0 11 -5 11 -11 0
-5 4 -8 9 -4 6 3 9 -26 9 -70 0 -48 -4 -72 -11 -68 -6 4 -7 1 -1 -8 5 -8 10
-25 10 -39 1 -14 2 -28 3 -32 1 -5 213 -8 471 -8 l470 0 1 88 c2 156 5 166 36
141 11 -9 14 -10 9 -2 -9 17 6 17 23 1 11 -10 13 -10 7 0 -4 6 -2 12 3 12 6 0
11 -4 11 -10 0 -5 11 -9 24 -8 14 1 22 6 20 10 -3 4 -1 8 5 8 5 0 12 -4 15 -8
11 -17 86 0 86 20 0 5 -6 6 -12 2 -10 -6 -10 -4 0 7 16 17 16 42 0 33 -10 -6
-10 -4 0 7 16 17 16 42 0 33 -10 -6 -10 -4 0 7 16 17 16 42 0 33 -10 -6 -10
-4 0 7 14 15 17 43 3 35 -5 -4 -4 5 2 19 12 24 15 25 120 25 118 0 113 -3 108
69 -2 24 0 31 10 26 9 -6 10 -4 3 6 -5 8 -9 43 -10 79 0 36 1 59 3 53 3 -7 9
-13 14 -13 6 0 8 4 4 9 -3 6 37 9 95 9 74 0 98 -3 93 -11 -3 -7 3 -4 15 7 12
10 19 23 16 27 -3 5 1 9 8 9 10 0 10 2 -1 9 -8 5 -11 16 -7 26 3 9 1 26 -5 37
-6 11 -7 18 -1 14 6 -3 9 14 7 46 -3 57 2 78 17 78 5 0 7 -4 4 -8 -2 -4 8 -8
24 -7 15 0 26 3 23 7 -5 10 11 10 21 1 10 -10 66 -11 60 -1 -6 10 10 11 20 1
11 -11 37 -12 30 -1 -4 6 1 8 15 3 l21 -6 0 585 c0 551 -1 586 -17 586 -14 0
-15 2 -4 9 9 6 4 8 -17 8 -17 -1 -28 -5 -26 -9 6 -10 -20 -11 -30 -1 -10 11
-37 12 -30 2 3 -5 -2 -9 -11 -9 -9 0 -14 4 -11 8 2 4 -6 8 -19 8 -13 0 -21 -4
-18 -9 7 -12 -30 -4 -44 10 -7 6 -13 21 -13 32 0 12 6 21 13 21 7 0 8 3 2 8
-15 10 -17 123 -2 141 6 9 8 13 3 9 -5 -4 -14 -1 -21 6 -9 9 -42 11 -115 9
-80 -3 -100 -1 -94 9 6 10 5 10 -7 1 -12 -10 -14 -1 -16 58 -1 51 1 68 10 62
9 -5 9 -3 0 8 -7 9 -12 26 -11 40 3 61 7 58 -109 57 -71 0 -109 4 -111 11 -2
6 -9 8 -15 4 -9 -5 -9 -3 -1 8 5 8 11 29 13 48 2 25 0 31 -11 26 -10 -6 -11
-5 0 6 6 7 12 19 12 27 0 8 -5 10 -12 6 -10 -6 -10 -4 -2 7 5 8 11 32 13 54 1
27 -1 36 -7 26 -8 -11 -10 -11 -14 0 -3 8 -19 14 -36 15 -17 0 -29 -3 -26 -8
8 -13 -10 -9 -25 5 -11 10 -13 10 -7 0 4 -7 2 -13 -3 -13 -6 0 -11 5 -11 10 0
6 -5 10 -11 10 -5 0 -8 -4 -5 -8 3 -5 -1 -9 -9 -9 -8 0 -12 3 -10 7 2 4 -2 7
-10 7 -8 0 -11 -5 -8 -10 3 -5 0 -7 -8 -3 -8 3 -22 9 -32 12 -10 4 -17 14 -16
23 1 9 1 58 0 109 l-1 92 -472 0 -473 0 0 -117z"/>
</g>
</svg>
